<svg width="24" height="24" viewBox="0 0 24 24" fill="none" xmlns="http://www.w3.org/2000/svg">
<g clip-path="url(#clip0_292_566)">
<path d="M13.5 1.5C13.5 0.670312 12.8297 0 12 0C11.1703 0 10.5 0.670312 10.5 1.5V11.25C10.5 11.6625 10.1625 12 9.75 12C9.3375 12 9 11.6625 9 11.25V3C9 2.17031 8.32968 1.5 7.5 1.5C6.67031 1.5 6 2.17031 6 3V15.75C6 15.8203 6 15.8953 6.00468 15.9656L3.16875 13.2656C2.41875 12.5531 1.23281 12.5812 0.515621 13.3312C-0.201566 14.0812 -0.168754 15.2672 0.581246 15.9844L5.85 21C7.87031 22.9266 10.5562 24 13.35 24H14.25C18.8062 24 22.5 20.3062 22.5 15.75V6C22.5 5.17031 21.8297 4.5 21 4.5C20.1703 4.5 19.5 5.17031 19.5 6V11.25C19.5 11.6625 19.1625 12 18.75 12C18.3375 12 18 11.6625 18 11.25V3C18 2.17031 17.3297 1.5 16.5 1.5C15.6703 1.5 15 2.17031 15 3V11.25C15 11.6625 14.6625 12 14.25 12C13.8375 12 13.5 11.6625 13.5 11.25V1.5Z" fill="#9CA3AF"/>
</g>
<defs>
<clipPath id="clip0_292_566">
<path d="M0 0H24V24H0V0Z" fill="white"/>
</clipPath>
</defs>
</svg>
