<svg width="18" height="20" viewBox="0 0 18 20" fill="none" xmlns="http://www.w3.org/2000/svg">
<g clip-path="url(#clip0_63_42)">
<path d="M0 3.125C0 2.08984 0.839844 1.25 1.875 1.25H5.625C6.66016 1.25 7.5 2.08984 7.5 3.125V6.875C7.5 7.91016 6.66016 8.75 5.625 8.75H1.875C0.839844 8.75 0 7.91016 0 6.875V3.125ZM2.5 3.75V6.25H5V3.75H2.5ZM0 13.125C0 12.0898 0.839844 11.25 1.875 11.25H5.625C6.66016 11.25 7.5 12.0898 7.5 13.125V16.875C7.5 17.9102 6.66016 18.75 5.625 18.75H1.875C0.839844 18.75 0 17.9102 0 16.875V13.125ZM2.5 13.75V16.25H5V13.75H2.5ZM11.875 1.25H15.625C16.6602 1.25 17.5 2.08984 17.5 3.125V6.875C17.5 7.91016 16.6602 8.75 15.625 8.75H11.875C10.8398 8.75 10 7.91016 10 6.875V3.125C10 2.08984 10.8398 1.25 11.875 1.25ZM15 3.75H12.5V6.25H15V3.75ZM10 11.875C10 11.5312 10.2812 11.25 10.625 11.25H13.125C13.4688 11.25 13.75 11.5312 13.75 11.875C13.75 12.2188 14.0312 12.5 14.375 12.5H15.625C15.9688 12.5 16.25 12.2188 16.25 11.875C16.25 11.5312 16.5312 11.25 16.875 11.25C17.2188 11.25 17.5 11.5312 17.5 11.875V15.625C17.5 15.9688 17.2188 16.25 16.875 16.25H14.375C14.0312 16.25 13.75 15.9688 13.75 15.625C13.75 15.2812 13.4688 15 13.125 15C12.7812 15 12.5 15.2812 12.5 15.625V18.125C12.5 18.4688 12.2188 18.75 11.875 18.75H10.625C10.2812 18.75 10 18.4688 10 18.125V11.875ZM14.375 18.75C14.2092 18.75 14.0503 18.6842 13.9331 18.5669C13.8158 18.4497 13.75 18.2908 13.75 18.125C13.75 17.9592 13.8158 17.8003 13.9331 17.6831C14.0503 17.5658 14.2092 17.5 14.375 17.5C14.5408 17.5 14.6997 17.5658 14.8169 17.6831C14.9342 17.8003 15 17.9592 15 18.125C15 18.2908 14.9342 18.4497 14.8169 18.5669C14.6997 18.6842 14.5408 18.75 14.375 18.75ZM16.875 18.75C16.7092 18.75 16.5503 18.6842 16.4331 18.5669C16.3158 18.4497 16.25 18.2908 16.25 18.125C16.25 17.9592 16.3158 17.8003 16.4331 17.6831C16.5503 17.5658 16.7092 17.5 16.875 17.5C17.0408 17.5 17.1997 17.5658 17.3169 17.6831C17.4342 17.8003 17.5 17.9592 17.5 18.125C17.5 18.2908 17.4342 18.4497 17.3169 18.5669C17.1997 18.6842 17.0408 18.75 16.875 18.75Z" fill="white"/>
</g>
<defs>
<clipPath id="clip0_63_42">
<path d="M0 0H17.5V20H0V0Z" fill="white"/>
</clipPath>
</defs>
</svg>
